<svg width="13" height="10" viewBox="0 0 13 10" fill="none" xmlns="http://www.w3.org/2000/svg">
<path d="M0.8125 4.16667C0.597012 4.16667 0.390349 4.25446 0.237976 4.41074C0.0856026 4.56702 0 4.77899 0 5C0 5.22101 0.0856026 5.43297 0.237976 5.58926C0.390349 5.74554 0.597012 5.83333 0.8125 5.83333V4.16667ZM12.1875 5.83333C12.403 5.83333 12.6097 5.74554 12.762 5.58926C12.9144 5.43297 13 5.22101 13 5C13 4.77899 12.9144 4.56702 12.762 4.41074C12.6097 4.25446 12.403 4.16667 12.1875 4.16667V5.83333ZM0.8125 0C0.597012 0 0.390349 0.0877975 0.237976 0.244078C0.0856026 0.400358 0 0.61232 0 0.833333C0 1.05435 0.0856026 1.26631 0.237976 1.42259C0.390349 1.57887 0.597012 1.66667 0.8125 1.66667V0ZM12.1875 1.66667C12.403 1.66667 12.6097 1.57887 12.762 1.42259C12.9144 1.26631 13 1.05435 13 0.833333C13 0.61232 12.9144 0.400358 12.762 0.244078C12.6097 0.0877975 12.403 0 12.1875 0V1.66667ZM0.8125 8.33333C0.597012 8.33333 0.390349 8.42113 0.237976 8.57741C0.0856026 8.73369 0 8.94565 0 9.16667C0 9.38768 0.0856026 9.59964 0.237976 9.75592C0.390349 9.9122 0.597012 10 0.8125 10V8.33333ZM12.1875 10C12.403 10 12.6097 9.9122 12.762 9.75592C12.9144 9.59964 13 9.38768 13 9.16667C13 8.94565 12.9144 8.73369 12.762 8.57741C12.6097 8.42113 12.403 8.33333 12.1875 8.33333V10ZM0.8125 5.83333H12.1875V4.16667H0.8125V5.83333ZM0.8125 1.66667H12.1875V0H0.8125V1.66667ZM0.8125 10H12.1875V8.33333H0.8125V10Z" fill="#D9D9D9"/>
</svg>
