<svg width="15" height="11" viewBox="0 0 15 11" fill="none" xmlns="http://www.w3.org/2000/svg">
<path d="M14.7158 3.63229C14.8301 3.54349 15 3.62656 15 3.76693V9.625C15 10.3841 14.3701 11 13.5938 11H1.40625C0.629883 11 0 10.3841 0 9.625V3.76979C0 3.62656 0.166992 3.54635 0.28418 3.63516C0.94043 4.13359 1.81055 4.76667 4.79883 6.88932C5.41699 7.33047 6.45996 8.25859 7.5 8.25286C8.5459 8.26146 9.60938 7.31328 10.2041 6.88932C13.1924 4.76667 14.0596 4.13073 14.7158 3.63229ZM7.5 7.33333C8.17969 7.34479 9.1582 6.49688 9.65039 6.1474C13.5381 3.3888 13.834 3.14818 14.7305 2.46068C14.9004 2.33177 15 2.13125 15 1.91927V1.375C15 0.615885 14.3701 0 13.5938 0H1.40625C0.629883 0 0 0.615885 0 1.375V1.91927C0 2.13125 0.0996094 2.32891 0.269531 2.46068C1.16602 3.14531 1.46191 3.3888 5.34961 6.1474C5.8418 6.49688 6.82031 7.34479 7.5 7.33333Z" fill="white" fill-opacity="0.45"/>
</svg>
