<svg width="19" height="19" viewBox="0 0 19 19" fill="none" xmlns="http://www.w3.org/2000/svg">
<path opacity="0.97" fill-rule="evenodd" clip-rule="evenodd" d="M7.87305 0.982422C8.35353 0.982422 8.83397 0.982422 9.31445 0.982422C11.9126 1.32308 13.8872 2.61214 15.2383 4.84961C16.3793 7.01675 16.5082 9.2433 15.625 11.5293C15.3211 12.2313 14.9286 12.8758 14.4473 13.4629C15.9116 14.9448 17.3823 16.4214 18.8594 17.8926C18.9107 17.9605 18.9517 18.0308 18.9824 18.1035C18.9824 18.2441 18.9824 18.3848 18.9824 18.5254C18.8887 18.7363 18.7363 18.8887 18.5254 18.9824C18.3848 18.9824 18.2441 18.9824 18.1035 18.9824C18.0308 18.9517 17.9605 18.9107 17.8926 18.8594C16.4214 17.3823 14.9448 15.9116 13.4629 14.4473C11.2178 16.1958 8.73339 16.6352 6.00977 15.7656C3.77419 14.9011 2.23318 13.3484 1.38672 11.1074C1.19057 10.5187 1.0558 9.921 0.982422 9.31445C0.982422 8.83397 0.982422 8.35353 0.982422 7.87305C1.26021 5.55302 2.33834 3.7073 4.2168 2.33594C5.32323 1.57748 6.542 1.1263 7.87305 0.982422ZM8.4707 2.31836C10.9455 2.39196 12.8146 3.4818 14.0781 5.58789C15.0958 7.60966 15.0841 9.6253 14.043 11.6348C12.8043 13.6814 10.982 14.7478 8.57617 14.834C5.89611 14.7128 3.98009 13.4472 2.82812 11.0371C1.92263 8.61857 2.28591 6.41543 3.91797 4.42773C5.15037 3.11137 6.66796 2.40824 8.4707 2.31836Z" fill="black"/>
</svg>
