<svg width="26" height="26" viewBox="0 0 26 26" fill="none" xmlns="http://www.w3.org/2000/svg">
<path d="M10.9687 0L9.40625 3.71875C9.09375 3.8125 8.8125 3.96875 8.53125 4.125L4.8125 2.5625L2.5625 4.8125L4.125 8.53125C3.96875 8.84375 3.84375 9.09375 3.71875 9.40625L0 10.9687V14.0937L3.71875 15.6562C3.84375 15.9687 3.96875 16.2187 4.125 16.5312L2.5625 20.25L4.8125 22.5L8.53125 20.9375C8.8125 21.0625 9.09375 21.2187 9.40625 21.3437L10.9687 25.0625H14.0937L15.6562 21.3437C15.9375 21.2187 16.25 21.0937 16.5313 20.9375L20.25 22.5L22.5 20.25L20.9375 16.5312C21.0625 16.25 21.2187 15.9375 21.3437 15.6562L25.0625 14.0937V10.9687L21.3437 9.40625C21.25 9.125 21.0937 8.8125 20.9375 8.53125L22.5 4.8125L20.25 2.5625L16.5313 4.125C16.25 4 15.9375 3.84375 15.6562 3.71875L14.0937 0L10.9687 0ZM12.5312 7.8125C15.125 7.8125 17.2187 9.90625 17.2187 12.5C17.2187 15.0937 15.125 17.1875 12.5312 17.1875C9.9375 17.1875 7.84375 15.0937 7.84375 12.5C7.84375 9.90625 9.9375 7.8125 12.5312 7.8125Z" fill="#D9D9D9"/>
</svg>
